<svg xmlns="http://www.w3.org/2000/svg" height="44" viewBox="0 0 231 44" width="231"><g fill="#fff"><path d="M208.94 0H22.06C9.929 0 .06 9.869.06 22s9.869 22 22 22h186.88c12.131 0 22-9.869 22-22s-9.87-22-22-22zm0 40.938H22.06C11.618 40.938 3.123 32.442 3.123 22S11.618 3.063 22.061 3.063h186.88c10.442 0 18.938 8.495 18.938 18.938s-8.5 18.937-18.94 18.937z"/><path d="M118.8 14.004h3.062v15.992H118.8zM23.731 29.996h15.992V14.004H23.731v15.992zm3.062-12.93h9.868v9.867h-9.868v-9.867zM43.397 29.996h3.063v-12.93h9.867v12.93h3.062V14.004H43.397M69.188 29.996h3.063v-5.801h10.994v5.801h3.062V14.004H69.188v15.992zm3.063-12.93h10.994v4.066H72.251v-4.066zM96.106 29.996h3.063v-12.93h4.911v7.129h3.07v-7.129h4.91v12.93h3.07V14.004H96.106M164.87 14.004h3.062v15.992h-3.062zM125.54 23.531h12.93v3.386h-12.93v3.062h15.99v-9.51H128.6v-3.403h12.93v-3.062h-15.99M145.2 23.514h12.93v3.403H145.2v3.062h16v-9.527h-12.93v-3.386h12.93v-3.062h-16M171.61 29.996h15.992V14.004h-15.99v15.992zm3.06-12.93h9.868v9.867h-9.868v-9.867zM191.28 29.996h3.06v-12.93h9.87v12.93h3.06V14.004h-15.99"/></g></svg>